<svg width="212" height="210" viewBox="0 0 212 210" fill="none" xmlns="http://www.w3.org/2000/svg">
<path fill-rule="evenodd" clip-rule="evenodd" d="M28.1167 6.57031V0.453125H0.132324V6.57031H10.5151V35H17.7808V6.57031H28.1167ZM53.7564 22.2734C53.7564 18.5859 52.6783 15.3906 50.522 12.6875C48.3658 9.98438 45.0923 8.63281 40.7017 8.63281C36.3111 8.63281 33.0376 9.98438 30.8814 12.6875C28.7251 15.3906 27.647 18.5859 27.647 22.2734C27.647 26.0234 28.7251 29.2344 30.8814 31.9062C33.0376 34.5625 36.3111 35.8906 40.7017 35.8906C45.0923 35.8906 48.3658 34.5625 50.522 31.9062C52.6783 29.2344 53.7564 26.0234 53.7564 22.2734ZM36.1548 16.3672C37.2173 14.9766 38.7251 14.2812 40.6783 14.2812C42.6314 14.2812 44.1314 14.9766 45.1783 16.3672C46.2251 17.7422 46.7486 19.7109 46.7486 22.2734C46.7486 24.8359 46.2251 26.8125 45.1783 28.2031C44.1314 29.5938 42.6314 30.2891 40.6783 30.2891C38.7251 30.2891 37.2173 29.5938 36.1548 28.2031C35.108 26.8125 34.5845 24.8359 34.5845 22.2734C34.5845 19.7109 35.108 17.7422 36.1548 16.3672ZM60.0601 35H74.9429C80.1617 35 84.0211 32.8516 86.5211 28.5547C88.3648 25.3672 89.2867 21.4766 89.2867 16.8828C89.2867 15.0703 89.0679 13.1641 88.6304 11.1641C88.1929 9.16406 87.3726 7.30469 86.1695 5.58594C84.6695 3.46094 82.7086 2 80.2867 1.20312C78.8648 0.734375 77.0836 0.484375 74.9429 0.453125H60.0601V35ZM73.7242 6.45312C77.0054 6.45312 79.2008 7.39062 80.3101 9.26562C81.4039 11.1562 81.9508 13.8594 81.9508 17.375C81.9508 19.9219 81.5836 22.1172 80.8492 23.9609C79.5054 27.3203 77.1304 29 73.7242 29H67.0679V6.45312H73.7242ZM119.708 22.2734C119.708 18.5859 118.63 15.3906 116.473 12.6875C114.317 9.98438 111.044 8.63281 106.653 8.63281C102.262 8.63281 98.9889 9.98438 96.8326 12.6875C94.6764 15.3906 93.5983 18.5859 93.5983 22.2734C93.5983 26.0234 94.6764 29.2344 96.8326 31.9062C98.9889 34.5625 102.262 35.8906 106.653 35.8906C111.044 35.8906 114.317 34.5625 116.473 31.9062C118.63 29.2344 119.708 26.0234 119.708 22.2734ZM102.106 16.3672C103.169 14.9766 104.676 14.2812 106.63 14.2812C108.583 14.2812 110.083 14.9766 111.13 16.3672C112.176 17.7422 112.7 19.7109 112.7 22.2734C112.7 24.8359 112.176 26.8125 111.13 28.2031C110.083 29.5938 108.583 30.2891 106.63 30.2891C104.676 30.2891 103.169 29.5938 102.106 28.2031C101.059 26.8125 100.536 24.8359 100.536 22.2734C100.536 19.7109 101.059 17.7422 102.106 16.3672ZM133.23 0.453125H126.011V35H150.339V28.7891H133.23V0.453125ZM162.643 35V9.45312H155.87V35H162.643ZM162.643 6.40625V0.242188H155.87V6.40625H162.643ZM191.142 17.2344C190.845 14.1094 189.697 11.9062 187.697 10.625C185.681 9.35938 183.08 8.72656 179.892 8.72656C176.533 8.72656 173.924 9.57812 172.064 11.2812C170.22 12.9688 169.299 14.9922 169.299 17.3516C169.299 19.3516 169.892 20.8828 171.08 21.9453C172.267 23.0234 174.306 23.9219 177.197 24.6406C181.213 25.5938 183.533 26.2656 184.158 26.6562C184.783 27.0469 185.095 27.6172 185.095 28.3672C185.095 29.1484 184.705 29.7344 183.924 30.125C183.158 30.5156 182.119 30.7109 180.806 30.7109C178.572 30.7109 177.041 30.2656 176.213 29.375C175.744 28.875 175.439 28.0312 175.299 26.8438H168.525C168.525 29.4688 169.478 31.6328 171.385 33.3359C173.306 35.0234 176.275 35.8672 180.291 35.8672C184.228 35.8672 187.135 35.0703 189.01 33.4766C190.9 31.8672 191.845 29.7969 191.845 27.2656C191.845 25.3438 191.189 23.7422 189.877 22.4609C188.549 21.1953 186.556 20.25 183.9 19.625C179.916 18.75 177.595 18.1328 176.939 17.7734C176.283 17.4297 175.955 16.875 175.955 16.1094C175.955 15.5 176.26 14.9688 176.869 14.5156C177.494 14.0625 178.533 13.8359 179.986 13.8359C181.752 13.8359 183.002 14.2891 183.736 15.1953C184.127 15.6953 184.369 16.375 184.463 17.2344H191.142ZM209.469 35.2344V30.2422C209.251 30.2578 209.024 30.2734 208.79 30.2891H208.157C206.798 30.2891 205.985 30.1641 205.719 29.9141C205.454 29.6484 205.321 28.9922 205.321 27.9453V14.4453H209.469V9.6875H205.321V2.5625H198.712V9.6875H195.149V14.4453H198.712V30.1719C198.712 31.7656 199.087 32.9453 199.837 33.7109C200.993 34.9141 203.149 35.4609 206.305 35.3516L209.469 35.2344ZM134.222 192C127.245 197.012 118.574 200 109.092 200C85.5506 200 67.0001 181.577 67.0001 159.5C67.0001 137.423 85.5506 119 109.092 119C120.367 119 130.497 123.225 137.992 130.054L108.466 159.033L96.9395 146.389C95.0775 144.346 91.87 144.146 89.7754 145.942C87.6808 147.737 87.4923 150.849 89.3543 152.891L104.268 169.251C105.523 170.628 107.391 171.168 109.116 170.823C110.24 170.707 111.332 170.228 112.189 169.388L144.526 137.648L144.556 137.693L152 130.856C142.604 117.653 126.89 109 109.092 109C80.3226 109 57.0001 131.61 57.0001 159.5C57.0001 187.39 80.3226 210 109.092 210C121.685 210 133.234 205.668 142.24 198.458L134.222 192ZM212 51H14.0001V45H212V51ZM9.00014 45H3.00014V51H9.00014V45Z" fill="black"/>
</svg>
